<svg viewBox="0 0 512 512" fill="none" xmlns="http://www.w3.org/2000/svg">
  <rect width="512" height="512" rx="128" fill="#1e293b"/>
  <rect x="32" y="32" width="448" height="448" rx="96" fill="#0f172a"/>
  <g transform="translate(128, 128) scale(1)">
    <path d="M128 40c-48.6 0-88 39.4-88 88v8c-22.1 0-40 17.9-40 40v144c0 22.1 17.9 40 40 40h8v8c0 13.3 10.7 24 24 24s24-10.7 24-24v-8h64v8c0 13.3 10.7 24 24 24s24-10.7 24-24v-8h8c22.1 0 40-17.9 40-40V176c0-22.1-17.9-40-40-40v-8c0-48.6-39.4-88-88-88zM72 128c0-30.9 25.1-56 56-56s56 25.1 56 56v8H72v-8zm-32 48c0-8.8 7.2-16 16-16h144c8.8 0 16 7.2 16 16v144c0 8.8-7.2 16-16 16H56c-8.8 0-16-7.2-16-16V176zm48 32c-13.3 0-24 10.7-24 24s10.7 24 24 24 24-10.7 24-24-10.7-24-24-24zm120 0c-13.3 0-24 10.7-24 24s10.7 24 24 24 24-10.7 24-24-10.7-24-24-24z" fill="#0ea5e9"/>
  </g>
</svg>
